<svg xmlns="http://www.w3.org/2000/svg" xmlns:fub="https://fubeo.github.io/ns/scene/1" fub:version="1" viewBox="0 0 1600 1000" width="1600" height="1000">
  <title>Flowchart</title>
  <defs id="fub-defs">
    <marker id="rlink1001" fub:role="shared" fub:marker="triangle medium end" refX="3.44" refY="3" markerWidth="5.34" markerHeight="6" orient="auto">
      <path d="M4.84 3 L0.51 5.5 L0.51 0.5 Z" fill="#000000"/>
    </marker>
  </defs>
  <rect id="fub-paper" fub:role="paper" x="0" y="0" width="1600" height="1000" fill="#ffffff"/>
  <g id="llivello1" fub:layer="Layer 1">
    <g id="oinizio02">
      <rect id="oinizio01" x="320" y="380" width="160" height="60" rx="30" ry="30" fill="none" stroke="#000000" stroke-width="4">
        <title>Start or end</title>
      </rect>
      <text id="oinizio03" fub:inside="oinizio01" fub:wrap="130.43" x="0" y="0" fill="#000000" font-family="Inter, sans-serif" font-size="24" text-anchor="middle" transform="matrix(1 0 0 1 400 416.6)">
        <tspan x="0" dy="0">Start</tspan>
      </text>
    </g>
    <g id="opasso002">
      <rect id="opasso001" x="560" y="360" width="160" height="100" fill="none" stroke="#000000" stroke-width="4">
        <title>Process</title>
      </rect>
      <text id="opasso003" fub:inside="opasso001" fub:wrap="148" x="0" y="0" fill="#000000" font-family="Inter, sans-serif" font-size="24" text-anchor="middle" transform="matrix(1 0 0 1 640 416.6)">
        <tspan x="0" dy="0">Step 1</tspan>
      </text>
    </g>
    <g id="oscelta02">
      <path id="oscelta01" d="M920 340 L1040 410 L920 480 L800 410 Z" fill="none" stroke="#000000" stroke-width="4">
        <title>Decision</title>
      </path>
      <text id="oscelta03" fub:inside="oscelta01" fub:wrap="90.86" x="0" y="0" fill="#000000" font-family="Inter, sans-serif" font-size="24" text-anchor="middle" transform="matrix(1 0 0 1 920 416.6)">
        <tspan x="0" dy="0">Choice</tspan>
      </text>
    </g>
    <g id="ofine0002">
      <rect id="ofine0001" x="1120" y="380" width="160" height="60" rx="30" ry="30" fill="none" stroke="#000000" stroke-width="4">
        <title>Start or end</title>
      </rect>
      <text id="ofine0003" fub:inside="ofine0001" fub:wrap="130.43" x="0" y="0" fill="#000000" font-family="Inter, sans-serif" font-size="24" text-anchor="middle" transform="matrix(1 0 0 1 1200 416.6)">
        <tspan x="0" dy="0">End</tspan>
      </text>
    </g>
    <g id="oaltro002">
      <rect id="oaltro001" x="840" y="580" width="160" height="100" fill="none" stroke="#000000" stroke-width="4">
        <title>Process</title>
      </rect>
      <text id="oaltro003" fub:inside="oaltro001" fub:wrap="148" x="0" y="0" fill="#000000" font-family="Inter, sans-serif" font-size="24" text-anchor="middle" transform="matrix(1 0 0 1 920 636.6)">
        <tspan x="0" dy="0">Step 2</tspan>
      </text>
    </g>
    <path id="olink1001" fub:shape="connector" fub:geom="straight 482 410 558 410" fub:from="oinizio02 right" fub:to="opasso002 left" d="M482 410 L558 410" fill="none" stroke="#000000" stroke-width="4" stroke-linecap="round" stroke-linejoin="round" marker-end="url(#rlink1001)"/>
    <path id="olink2001" fub:shape="connector" fub:geom="straight 722 410 798 410" fub:from="opasso002 right" fub:to="oscelta02 left" d="M722 410 L798 410" fill="none" stroke="#000000" stroke-width="4" stroke-linecap="round" stroke-linejoin="round" marker-end="url(#rlink1001)"/>
    <path id="olink3001" fub:shape="connector" fub:geom="straight 1042 410 1118 410" fub:from="oscelta02 right" fub:to="ofine0002 left" d="M1042 410 L1118 410" fill="none" stroke="#000000" stroke-width="4" stroke-linecap="round" stroke-linejoin="round" marker-end="url(#rlink1001)"/>
    <text id="osi000001" fub:along="olink3001 0.5 4" x="0" y="0" fill="#000000" font-family="Inter, sans-serif" font-size="24" text-anchor="middle" transform="matrix(1 0 0 1 1080 400)">
      <tspan x="0" dy="0">Yes</tspan>
    </text>
    <path id="olink4001" fub:shape="connector" fub:geom="straight 920 482 920 578" fub:from="oscelta02 bottom" fub:to="oaltro002 top" d="M920 482 L920 578" fill="none" stroke="#000000" stroke-width="4" stroke-linecap="round" stroke-linejoin="round" marker-end="url(#rlink1001)"/>
    <text id="ono000001" fub:along="olink4001 0.5 4" x="0" y="0" fill="#000000" font-family="Inter, sans-serif" font-size="24" text-anchor="middle" transform="matrix(1 0 0 1 938.4 536.6)">
      <tspan x="0" dy="0">No</tspan>
    </text>
    <path id="olink5001" fub:shape="connector" fub:geom="elbow 838 630 640 630 640 462" fub:from="oaltro002 left" fub:to="opasso002 bottom" d="M838 630 L640 630 L640 462" fill="none" stroke="#000000" stroke-width="4" stroke-linecap="round" stroke-linejoin="round" marker-end="url(#rlink1001)"/>
  </g>
</svg>
